<svg xmlns="http://www.w3.org/2000/svg" version="1.1" xmlns:xlink="http://www.w3.org/1999/xlink" xmlns:svgjs="http://svgjs.com/svgjs" width="1440" height="560" preserveAspectRatio="none" viewBox="0 0 1440 560"><g mask="url(&quot;#SvgjsMask1002&quot;)" fill="none"><rect width="1440" height="560" x="0" y="0" fill="url(#SvgjsLinearGradient1003)"></rect><path d="M1440 0L1064.81 0L1440 235.04z" fill="rgba(255, 255, 255, .1)"></path><path d="M1064.81 0L1440 235.04L1440 354.68L760.7099999999999 0z" fill="rgba(255, 255, 255, .075)"></path><path d="M760.71 0L1440 354.68L1440 421.81L443.62000000000006 0z" fill="rgba(255, 255, 255, .05)"></path><path d="M443.6200000000001 0L1440 421.81L1440 518.7L361.67000000000013 0z" fill="rgba(255, 255, 255, .025)"></path><path d="M0 560L155.04 560L0 281.27z" fill="rgba(0, 0, 0, .1)"></path><path d="M0 281.27L155.04 560L522.89 560L0 177.10999999999999z" fill="rgba(0, 0, 0, .075)"></path><path d="M0 177.11L522.89 560L913.16 560L0 147.91000000000003z" fill="rgba(0, 0, 0, .05)"></path><path d="M0 147.91000000000003L913.16 560L980.65 560L0 60.96000000000002z" fill="rgba(0, 0, 0, .025)"></path></g><defs><mask id="SvgjsMask1002"><rect width="1440" height="560" fill="#ffffff"></rect></mask><linearGradient x1="15.28%" y1="-39.29%" x2="84.72%" y2="139.29%" gradientUnits="userSpaceOnUse" id="SvgjsLinearGradient1003"><stop stop-color="#0e2a47" offset="0"></stop><stop stop-color="#00459e" offset="1"></stop></linearGradient></defs></svg>